<svg width="26" height="26" viewBox="0 0 26 26" fill="none" xmlns="http://www.w3.org/2000/svg">
<rect width="26" height="26" rx="3" fill="#44403C"/>
<path d="M7.486 20.434H4.742C4.826 19.762 4.854 19.174 4.854 18.236V10.984C4.854 9.962 4.826 9.458 4.742 8.786H7.584C7.514 9.458 7.486 9.962 7.486 10.984V12.16C7.486 12.37 7.486 12.496 7.472 12.692C8.298 11.964 9.194 11.642 10.356 11.642C12.904 11.642 14.388 13.266 14.388 16.038C14.388 17.536 13.954 18.74 13.142 19.594C12.414 20.322 11.462 20.686 10.23 20.686C9.068 20.686 8.382 20.448 7.472 19.692C7.472 19.734 7.486 19.916 7.486 19.986V20.434ZM11.672 16.066C11.672 14.638 10.93 13.77 9.698 13.77C8.424 13.77 7.514 14.75 7.514 16.108C7.514 17.494 8.438 18.544 9.642 18.544C10.86 18.544 11.672 17.55 11.672 16.066ZM16.6078 11.894V11.6C16.6078 10.9 16.5798 10.34 16.4958 9.682H19.3518C19.2818 10.256 19.2398 10.928 19.2398 11.6V11.894H19.7438C20.3598 11.894 20.6818 11.88 21.1158 11.824V14.148C20.6958 14.092 20.3318 14.064 19.8278 14.064H19.2398V17.648C19.2398 18.04 19.3098 18.236 19.4918 18.362C19.6458 18.46 19.8698 18.516 20.1358 18.516C20.4998 18.516 20.7658 18.446 21.1158 18.264L21.3258 20.392C20.6958 20.588 20.1498 20.672 19.3938 20.672C18.4418 20.672 17.7838 20.518 17.3358 20.182C16.8038 19.776 16.6078 19.3 16.6078 18.348V14.064H16.0758C15.6278 14.064 15.2638 14.092 14.8578 14.148V11.81C15.2638 11.866 15.6138 11.894 16.1038 11.894H16.6078Z" fill="white"/>
</svg>
